<mxfile host="65bd71144e">
    <diagram id="OY_DTfB4gD_qRDo4ge83" name="Страница 1">
        <mxGraphModel dx="3727" dy="2633" grid="1" gridSize="10" guides="1" tooltips="1" connect="1" arrows="1" fold="1" page="1" pageScale="1" pageWidth="827" pageHeight="1169" math="0" shadow="0">
            <root>
                <mxCell id="0"/>
                <mxCell id="1" parent="0"/>
                <mxCell id="4" value="" style="edgeStyle=none;html=1;" edge="1" parent="1" source="2" target="3">
                    <mxGeometry relative="1" as="geometry"/>
                </mxCell>
                <mxCell id="2" value="int Line_search(char* arr, int size, int key)" style="ellipse;whiteSpace=wrap;html=1;" vertex="1" parent="1">
                    <mxGeometry x="160" y="10" width="180" height="80" as="geometry"/>
                </mxCell>
                <mxCell id="6" value="" style="edgeStyle=none;html=1;" edge="1" parent="1" source="3" target="5">
                    <mxGeometry relative="1" as="geometry"/>
                </mxCell>
                <mxCell id="14" style="edgeStyle=none;html=1;entryX=0.5;entryY=0;entryDx=0;entryDy=0;" edge="1" parent="1" source="3" target="9">
                    <mxGeometry relative="1" as="geometry">
                        <Array as="points">
                            <mxPoint x="90" y="160"/>
                            <mxPoint x="90" y="540"/>
                            <mxPoint x="260" y="540"/>
                        </Array>
                    </mxGeometry>
                </mxCell>
                <mxCell id="3" value="for (int i = 0; i &lt; size; i++)" style="shape=hexagon;perimeter=hexagonPerimeter2;whiteSpace=wrap;html=1;fixedSize=1;" vertex="1" parent="1">
                    <mxGeometry x="190" y="120" width="120" height="80" as="geometry"/>
                </mxCell>
                <mxCell id="8" style="edgeStyle=none;html=1;entryX=0.5;entryY=0;entryDx=0;entryDy=0;" edge="1" parent="1" source="5" target="7">
                    <mxGeometry relative="1" as="geometry">
                        <Array as="points">
                            <mxPoint x="350" y="280"/>
                            <mxPoint x="370" y="280"/>
                        </Array>
                    </mxGeometry>
                </mxCell>
                <mxCell id="13" value="1" style="edgeLabel;html=1;align=center;verticalAlign=middle;resizable=0;points=[];" vertex="1" connectable="0" parent="8">
                    <mxGeometry x="0.1846" relative="1" as="geometry">
                        <mxPoint as="offset"/>
                    </mxGeometry>
                </mxCell>
                <mxCell id="11" style="edgeStyle=none;html=1;entryX=1;entryY=0.5;entryDx=0;entryDy=0;" edge="1" parent="1" source="5" target="3">
                    <mxGeometry relative="1" as="geometry">
                        <Array as="points">
                            <mxPoint x="140" y="280"/>
                            <mxPoint x="140" y="460"/>
                            <mxPoint x="250" y="460"/>
                            <mxPoint x="250" y="500"/>
                            <mxPoint x="490" y="500"/>
                            <mxPoint x="490" y="160"/>
                        </Array>
                    </mxGeometry>
                </mxCell>
                <mxCell id="12" value="0" style="edgeLabel;html=1;align=center;verticalAlign=middle;resizable=0;points=[];" vertex="1" connectable="0" parent="11">
                    <mxGeometry x="-0.9754" relative="1" as="geometry">
                        <mxPoint as="offset"/>
                    </mxGeometry>
                </mxCell>
                <mxCell id="5" value="if (arr[i] == key)" style="rhombus;whiteSpace=wrap;html=1;" vertex="1" parent="1">
                    <mxGeometry x="190" y="240" width="120" height="80" as="geometry"/>
                </mxCell>
                <mxCell id="10" style="edgeStyle=none;html=1;entryX=1;entryY=0.5;entryDx=0;entryDy=0;" edge="1" parent="1" source="7" target="3">
                    <mxGeometry relative="1" as="geometry">
                        <Array as="points">
                            <mxPoint x="370" y="460"/>
                            <mxPoint x="250" y="460"/>
                            <mxPoint x="250" y="500"/>
                            <mxPoint x="490" y="500"/>
                            <mxPoint x="490" y="160"/>
                        </Array>
                    </mxGeometry>
                </mxCell>
                <mxCell id="7" value="return i;" style="rounded=0;whiteSpace=wrap;html=1;" vertex="1" parent="1">
                    <mxGeometry x="310" y="350" width="120" height="60" as="geometry"/>
                </mxCell>
                <mxCell id="16" value="" style="edgeStyle=none;html=1;" edge="1" parent="1" source="9" target="15">
                    <mxGeometry relative="1" as="geometry"/>
                </mxCell>
                <mxCell id="9" value="return -1;" style="rounded=0;whiteSpace=wrap;html=1;" vertex="1" parent="1">
                    <mxGeometry x="200" y="590" width="120" height="60" as="geometry"/>
                </mxCell>
                <mxCell id="15" value="Конец" style="ellipse;whiteSpace=wrap;html=1;" vertex="1" parent="1">
                    <mxGeometry x="200" y="710" width="120" height="80" as="geometry"/>
                </mxCell>
                <mxCell id="19" value="" style="edgeStyle=none;html=1;" edge="1" parent="1" source="17" target="18">
                    <mxGeometry relative="1" as="geometry"/>
                </mxCell>
                <mxCell id="17" value="bool destroy(char* arr, int size, int index)" style="ellipse;whiteSpace=wrap;html=1;" vertex="1" parent="1">
                    <mxGeometry x="740" y="10" width="260" height="80" as="geometry"/>
                </mxCell>
                <mxCell id="21" style="edgeStyle=none;html=1;entryX=0.5;entryY=0;entryDx=0;entryDy=0;" edge="1" parent="1" source="18" target="20">
                    <mxGeometry relative="1" as="geometry">
                        <Array as="points">
                            <mxPoint x="1020" y="190"/>
                        </Array>
                    </mxGeometry>
                </mxCell>
                <mxCell id="26" value="1" style="edgeLabel;html=1;align=center;verticalAlign=middle;resizable=0;points=[];" vertex="1" connectable="0" parent="21">
                    <mxGeometry x="-0.7385" y="-3" relative="1" as="geometry">
                        <mxPoint as="offset"/>
                    </mxGeometry>
                </mxCell>
                <mxCell id="24" style="edgeStyle=none;html=1;entryX=0.5;entryY=0;entryDx=0;entryDy=0;" edge="1" parent="1" source="18" target="22">
                    <mxGeometry relative="1" as="geometry">
                        <Array as="points">
                            <mxPoint x="710" y="190"/>
                            <mxPoint x="710" y="360"/>
                            <mxPoint x="870" y="360"/>
                        </Array>
                    </mxGeometry>
                </mxCell>
                <mxCell id="25" value="0" style="edgeLabel;html=1;align=center;verticalAlign=middle;resizable=0;points=[];" vertex="1" connectable="0" parent="24">
                    <mxGeometry x="-0.9273" relative="1" as="geometry">
                        <mxPoint as="offset"/>
                    </mxGeometry>
                </mxCell>
                <mxCell id="18" value="if (index &lt; 0 || index &gt; size)" style="rhombus;whiteSpace=wrap;html=1;" vertex="1" parent="1">
                    <mxGeometry x="780" y="150" width="180" height="80" as="geometry"/>
                </mxCell>
                <mxCell id="23" style="edgeStyle=none;html=1;entryX=0.5;entryY=0;entryDx=0;entryDy=0;" edge="1" parent="1" source="20" target="22">
                    <mxGeometry relative="1" as="geometry">
                        <Array as="points">
                            <mxPoint x="1020" y="360"/>
                            <mxPoint x="870" y="360"/>
                        </Array>
                    </mxGeometry>
                </mxCell>
                <mxCell id="20" value="return false;" style="rounded=0;whiteSpace=wrap;html=1;" vertex="1" parent="1">
                    <mxGeometry x="960" y="260" width="120" height="60" as="geometry"/>
                </mxCell>
                <mxCell id="28" value="" style="edgeStyle=none;html=1;" edge="1" parent="1" source="22" target="27">
                    <mxGeometry relative="1" as="geometry"/>
                </mxCell>
                <mxCell id="31" style="edgeStyle=none;html=1;" edge="1" parent="1" source="22" target="30">
                    <mxGeometry relative="1" as="geometry">
                        <Array as="points">
                            <mxPoint x="750" y="440"/>
                            <mxPoint x="750" y="660"/>
                            <mxPoint x="870" y="660"/>
                        </Array>
                    </mxGeometry>
                </mxCell>
                <mxCell id="22" value="for (int i = index; i &lt; size; i++)" style="shape=hexagon;perimeter=hexagonPerimeter2;whiteSpace=wrap;html=1;fixedSize=1;" vertex="1" parent="1">
                    <mxGeometry x="810" y="400" width="120" height="80" as="geometry"/>
                </mxCell>
                <mxCell id="29" style="edgeStyle=none;html=1;entryX=1;entryY=0.5;entryDx=0;entryDy=0;" edge="1" parent="1" source="27" target="22">
                    <mxGeometry relative="1" as="geometry">
                        <Array as="points">
                            <mxPoint x="870" y="620"/>
                            <mxPoint x="970" y="620"/>
                            <mxPoint x="970" y="440"/>
                        </Array>
                    </mxGeometry>
                </mxCell>
                <mxCell id="27" value="arr[i] = arr[i + 1];" style="rounded=0;whiteSpace=wrap;html=1;" vertex="1" parent="1">
                    <mxGeometry x="810" y="520" width="120" height="60" as="geometry"/>
                </mxCell>
                <mxCell id="33" value="" style="edgeStyle=none;html=1;" edge="1" parent="1" source="30" target="32">
                    <mxGeometry relative="1" as="geometry"/>
                </mxCell>
                <mxCell id="30" value="size--;" style="rounded=0;whiteSpace=wrap;html=1;" vertex="1" parent="1">
                    <mxGeometry x="810" y="710" width="120" height="60" as="geometry"/>
                </mxCell>
                <mxCell id="35" value="" style="edgeStyle=none;html=1;" edge="1" parent="1" source="32" target="34">
                    <mxGeometry relative="1" as="geometry"/>
                </mxCell>
                <mxCell id="32" value="return true;" style="rounded=0;whiteSpace=wrap;html=1;" vertex="1" parent="1">
                    <mxGeometry x="810" y="810" width="120" height="60" as="geometry"/>
                </mxCell>
                <mxCell id="34" value="Конец" style="ellipse;whiteSpace=wrap;html=1;" vertex="1" parent="1">
                    <mxGeometry x="810" y="920" width="120" height="80" as="geometry"/>
                </mxCell>
                <mxCell id="38" value="" style="edgeStyle=none;html=1;" edge="1" parent="1" source="36" target="37">
                    <mxGeometry relative="1" as="geometry"/>
                </mxCell>
                <mxCell id="36" value="void inprint(char* arr, int n)" style="ellipse;whiteSpace=wrap;html=1;" vertex="1" parent="1">
                    <mxGeometry x="1310" y="10" width="210" height="80" as="geometry"/>
                </mxCell>
                <mxCell id="40" value="" style="edgeStyle=none;html=1;" edge="1" parent="1" source="37" target="39">
                    <mxGeometry relative="1" as="geometry"/>
                </mxCell>
                <mxCell id="37" value="cout &lt;&lt; &quot;Заданное множество: &quot;;" style="shape=parallelogram;perimeter=parallelogramPerimeter;whiteSpace=wrap;html=1;fixedSize=1;" vertex="1" parent="1">
                    <mxGeometry x="1345" y="130" width="140" height="60" as="geometry"/>
                </mxCell>
                <mxCell id="42" value="" style="edgeStyle=none;html=1;" edge="1" parent="1" source="39" target="41">
                    <mxGeometry relative="1" as="geometry"/>
                </mxCell>
                <mxCell id="45" style="edgeStyle=none;html=1;entryX=0.5;entryY=0;entryDx=0;entryDy=0;" edge="1" parent="1" source="39" target="44">
                    <mxGeometry relative="1" as="geometry">
                        <Array as="points">
                            <mxPoint x="1300" y="260"/>
                            <mxPoint x="1300" y="500"/>
                            <mxPoint x="1415" y="500"/>
                        </Array>
                    </mxGeometry>
                </mxCell>
                <mxCell id="39" value="for (int i = 0; i &lt; n; i++)" style="shape=hexagon;perimeter=hexagonPerimeter2;whiteSpace=wrap;html=1;fixedSize=1;" vertex="1" parent="1">
                    <mxGeometry x="1345" y="220" width="140" height="80" as="geometry"/>
                </mxCell>
                <mxCell id="43" style="edgeStyle=none;html=1;entryX=1;entryY=0.5;entryDx=0;entryDy=0;" edge="1" parent="1" source="41" target="39">
                    <mxGeometry relative="1" as="geometry">
                        <Array as="points">
                            <mxPoint x="1415" y="440"/>
                            <mxPoint x="1530" y="440"/>
                            <mxPoint x="1530" y="260"/>
                        </Array>
                    </mxGeometry>
                </mxCell>
                <mxCell id="41" value="cin &gt;&gt; arr[i];" style="shape=parallelogram;perimeter=parallelogramPerimeter;whiteSpace=wrap;html=1;fixedSize=1;" vertex="1" parent="1">
                    <mxGeometry x="1355" y="340" width="120" height="60" as="geometry"/>
                </mxCell>
                <mxCell id="44" value="Конец" style="ellipse;whiteSpace=wrap;html=1;" vertex="1" parent="1">
                    <mxGeometry x="1355" y="545" width="120" height="80" as="geometry"/>
                </mxCell>
                <mxCell id="48" value="" style="edgeStyle=none;html=1;" edge="1" parent="1" source="46" target="47">
                    <mxGeometry relative="1" as="geometry"/>
                </mxCell>
                <mxCell id="46" value="void outprint(char* arr, int n)" style="ellipse;whiteSpace=wrap;html=1;" vertex="1" parent="1">
                    <mxGeometry x="1750" y="10" width="210" height="80" as="geometry"/>
                </mxCell>
                <mxCell id="50" value="" style="edgeStyle=none;html=1;" edge="1" parent="1" source="47" target="49">
                    <mxGeometry relative="1" as="geometry"/>
                </mxCell>
                <mxCell id="53" style="edgeStyle=none;html=1;entryX=0.5;entryY=0;entryDx=0;entryDy=0;" edge="1" parent="1" source="47" target="52">
                    <mxGeometry relative="1" as="geometry">
                        <Array as="points">
                            <mxPoint x="1720" y="180"/>
                            <mxPoint x="1720" y="400"/>
                            <mxPoint x="1855" y="400"/>
                        </Array>
                    </mxGeometry>
                </mxCell>
                <mxCell id="47" value="for (int i = 0; i &lt; n; i++)" style="shape=hexagon;perimeter=hexagonPerimeter2;whiteSpace=wrap;html=1;fixedSize=1;" vertex="1" parent="1">
                    <mxGeometry x="1780" y="140" width="150" height="80" as="geometry"/>
                </mxCell>
                <mxCell id="51" style="edgeStyle=none;html=1;entryX=1;entryY=0.5;entryDx=0;entryDy=0;" edge="1" parent="1" source="49" target="47">
                    <mxGeometry relative="1" as="geometry">
                        <Array as="points">
                            <mxPoint x="1855" y="360"/>
                            <mxPoint x="1990" y="360"/>
                            <mxPoint x="1990" y="180"/>
                        </Array>
                    </mxGeometry>
                </mxCell>
                <mxCell id="49" value="cout &lt;&lt; arr[i] &lt;&lt; &quot; &quot;;" style="shape=parallelogram;perimeter=parallelogramPerimeter;whiteSpace=wrap;html=1;fixedSize=1;" vertex="1" parent="1">
                    <mxGeometry x="1780" y="260" width="150" height="60" as="geometry"/>
                </mxCell>
                <mxCell id="52" value="Конец" style="ellipse;whiteSpace=wrap;html=1;" vertex="1" parent="1">
                    <mxGeometry x="1795" y="440" width="120" height="80" as="geometry"/>
                </mxCell>
                <mxCell id="56" value="" style="edgeStyle=none;html=1;" edge="1" parent="1" source="54" target="55">
                    <mxGeometry relative="1" as="geometry"/>
                </mxCell>
                <mxCell id="54" value="Начало" style="ellipse;whiteSpace=wrap;html=1;" vertex="1" parent="1">
                    <mxGeometry x="2250" y="10" width="120" height="80" as="geometry"/>
                </mxCell>
                <mxCell id="60" value="" style="edgeStyle=none;html=1;" edge="1" parent="1" source="55" target="59">
                    <mxGeometry relative="1" as="geometry"/>
                </mxCell>
                <mxCell id="55" value="setlocale(LC_ALL, &quot;RUS&quot;);" style="rounded=0;whiteSpace=wrap;html=1;" vertex="1" parent="1">
                    <mxGeometry x="2250" y="160" width="120" height="60" as="geometry"/>
                </mxCell>
                <mxCell id="57" value="#include &amp;lt;iostream&amp;gt;&lt;br&gt;&lt;br&gt;&lt;br&gt;using namespace std;" style="strokeWidth=2;html=1;shape=mxgraph.flowchart.annotation_2;align=left;labelPosition=right;pointerEvents=1;" vertex="1" parent="1">
                    <mxGeometry x="2410" y="60" width="50" height="100" as="geometry"/>
                </mxCell>
                <mxCell id="58" value="" style="endArrow=none;dashed=1;html=1;entryX=0;entryY=0.5;entryDx=0;entryDy=0;entryPerimeter=0;" edge="1" parent="1" target="57">
                    <mxGeometry width="50" height="50" relative="1" as="geometry">
                        <mxPoint x="2310" y="110" as="sourcePoint"/>
                        <mxPoint x="2330" y="310" as="targetPoint"/>
                    </mxGeometry>
                </mxCell>
                <mxCell id="62" value="" style="edgeStyle=none;html=1;" edge="1" parent="1" source="59" target="61">
                    <mxGeometry relative="1" as="geometry"/>
                </mxCell>
                <mxCell id="59" value="int n;" style="rounded=0;whiteSpace=wrap;html=1;" vertex="1" parent="1">
                    <mxGeometry x="2250" y="250" width="120" height="60" as="geometry"/>
                </mxCell>
                <mxCell id="65" value="" style="edgeStyle=none;html=1;" edge="1" parent="1" source="61" target="63">
                    <mxGeometry relative="1" as="geometry"/>
                </mxCell>
                <mxCell id="61" value="cout &lt;&lt; &quot;Введите размер множества: &quot;;" style="shape=parallelogram;perimeter=parallelogramPerimeter;whiteSpace=wrap;html=1;fixedSize=1;" vertex="1" parent="1">
                    <mxGeometry x="2215" y="340" width="190" height="60" as="geometry"/>
                </mxCell>
                <mxCell id="67" value="" style="edgeStyle=none;html=1;" edge="1" parent="1" source="63" target="66">
                    <mxGeometry relative="1" as="geometry"/>
                </mxCell>
                <mxCell id="63" value="cin &gt;&gt; n;" style="shape=parallelogram;perimeter=parallelogramPerimeter;whiteSpace=wrap;html=1;fixedSize=1;" vertex="1" parent="1">
                    <mxGeometry x="2250" y="430" width="120" height="60" as="geometry"/>
                </mxCell>
                <mxCell id="69" value="" style="edgeStyle=none;html=1;" edge="1" parent="1" source="66" target="68">
                    <mxGeometry relative="1" as="geometry"/>
                </mxCell>
                <mxCell id="66" value="char* arr = new char[n];" style="rounded=0;whiteSpace=wrap;html=1;" vertex="1" parent="1">
                    <mxGeometry x="2250" y="525" width="120" height="60" as="geometry"/>
                </mxCell>
                <mxCell id="71" value="" style="edgeStyle=none;html=1;" edge="1" parent="1" source="68" target="70">
                    <mxGeometry relative="1" as="geometry"/>
                </mxCell>
                <mxCell id="68" value="cout &lt;&lt; &quot;Введите строчку букв через пробел  =&gt;   &quot;;" style="shape=parallelogram;perimeter=parallelogramPerimeter;whiteSpace=wrap;html=1;fixedSize=1;" vertex="1" parent="1">
                    <mxGeometry x="2210" y="625" width="200" height="60" as="geometry"/>
                </mxCell>
                <mxCell id="73" value="" style="edgeStyle=none;html=1;" edge="1" parent="1" source="70" target="72">
                    <mxGeometry relative="1" as="geometry"/>
                </mxCell>
                <mxCell id="70" value="inprint(arr, n);" style="rounded=0;whiteSpace=wrap;html=1;" vertex="1" parent="1">
                    <mxGeometry x="2250" y="720" width="120" height="60" as="geometry"/>
                </mxCell>
                <mxCell id="75" value="" style="edgeStyle=none;html=1;" edge="1" parent="1" source="72" target="74">
                    <mxGeometry relative="1" as="geometry"/>
                </mxCell>
                <mxCell id="72" value="char key = 'u';" style="rounded=0;whiteSpace=wrap;html=1;" vertex="1" parent="1">
                    <mxGeometry x="2250" y="820" width="120" height="60" as="geometry"/>
                </mxCell>
                <mxCell id="77" value="" style="edgeStyle=none;html=1;" edge="1" parent="1" source="74" target="76">
                    <mxGeometry relative="1" as="geometry"/>
                </mxCell>
                <mxCell id="74" value="cout &lt;&lt; endl &lt;&lt; &quot;Ищем в множестве букву Ю &quot; &lt;&lt; endl;" style="shape=parallelogram;perimeter=parallelogramPerimeter;whiteSpace=wrap;html=1;fixedSize=1;" vertex="1" parent="1">
                    <mxGeometry x="2175" y="920" width="270" height="60" as="geometry"/>
                </mxCell>
                <mxCell id="79" value="" style="edgeStyle=none;html=1;" edge="1" parent="1" source="76" target="78">
                    <mxGeometry relative="1" as="geometry"/>
                </mxCell>
                <mxCell id="76" value="int index;" style="rounded=0;whiteSpace=wrap;html=1;" vertex="1" parent="1">
                    <mxGeometry x="2250" y="1020" width="120" height="60" as="geometry"/>
                </mxCell>
                <mxCell id="81" value="" style="edgeStyle=none;html=1;" edge="1" parent="1" source="78" target="80">
                    <mxGeometry relative="1" as="geometry"/>
                </mxCell>
                <mxCell id="78" value="index = Line_search(arr, n, key);" style="rounded=0;whiteSpace=wrap;html=1;" vertex="1" parent="1">
                    <mxGeometry x="2250" y="1109" width="120" height="60" as="geometry"/>
                </mxCell>
                <mxCell id="83" value="" style="edgeStyle=none;html=1;" edge="1" parent="1" source="80" target="82">
                    <mxGeometry relative="1" as="geometry"/>
                </mxCell>
                <mxCell id="80" value="int k = n - 1;" style="rounded=0;whiteSpace=wrap;html=1;" vertex="1" parent="1">
                    <mxGeometry x="2250" y="1200" width="120" height="60" as="geometry"/>
                </mxCell>
                <mxCell id="85" value="" style="edgeStyle=none;html=1;" edge="1" parent="1" source="82" target="84">
                    <mxGeometry relative="1" as="geometry"/>
                </mxCell>
                <mxCell id="82" value="char* arr_tmp = new char[k];" style="rounded=0;whiteSpace=wrap;html=1;" vertex="1" parent="1">
                    <mxGeometry x="2250" y="1300" width="120" height="60" as="geometry"/>
                </mxCell>
                <mxCell id="87" value="" style="edgeStyle=none;html=1;" edge="1" parent="1" source="84" target="86">
                    <mxGeometry relative="1" as="geometry"/>
                </mxCell>
                <mxCell id="84" value="int j = 0;" style="rounded=0;whiteSpace=wrap;html=1;" vertex="1" parent="1">
                    <mxGeometry x="2250" y="1410" width="120" height="60" as="geometry"/>
                </mxCell>
                <mxCell id="89" style="edgeStyle=none;html=1;" edge="1" parent="1" source="86" target="92">
                    <mxGeometry relative="1" as="geometry">
                        <mxPoint x="2450" y="1640" as="targetPoint"/>
                        <Array as="points">
                            <mxPoint x="2450" y="1550"/>
                        </Array>
                    </mxGeometry>
                </mxCell>
                <mxCell id="91" style="edgeStyle=none;html=1;entryX=0.5;entryY=0;entryDx=0;entryDy=0;" edge="1" parent="1" source="86" target="90">
                    <mxGeometry relative="1" as="geometry">
                        <Array as="points">
                            <mxPoint x="2150" y="1550"/>
                        </Array>
                    </mxGeometry>
                </mxCell>
                <mxCell id="86" value="if (index == -1)" style="rhombus;whiteSpace=wrap;html=1;" vertex="1" parent="1">
                    <mxGeometry x="2245" y="1510" width="130" height="80" as="geometry"/>
                </mxCell>
                <mxCell id="94" value="" style="edgeStyle=none;html=1;" edge="1" parent="1" source="90" target="93">
                    <mxGeometry relative="1" as="geometry"/>
                </mxCell>
                <mxCell id="90" value="cout &lt;&lt; &quot; Получили индекс искомой буквы &quot; &lt;&lt; endl &lt;&lt; endl;" style="shape=parallelogram;perimeter=parallelogramPerimeter;whiteSpace=wrap;html=1;fixedSize=1;" vertex="1" parent="1">
                    <mxGeometry x="2050" y="1630" width="200" height="60" as="geometry"/>
                </mxCell>
                <mxCell id="106" style="edgeStyle=none;html=1;" edge="1" parent="1" source="92">
                    <mxGeometry relative="1" as="geometry">
                        <mxPoint x="2300" y="2460" as="targetPoint"/>
                        <Array as="points">
                            <mxPoint x="2450" y="2420"/>
                            <mxPoint x="2300" y="2420"/>
                        </Array>
                    </mxGeometry>
                </mxCell>
                <mxCell id="92" value="&#10;&#10;&lt;span style=&quot;color: rgb(240, 240, 240); font-family: helvetica; font-size: 12px; font-style: normal; font-weight: 400; letter-spacing: normal; text-align: center; text-indent: 0px; text-transform: none; word-spacing: 0px; background-color: rgb(42, 42, 42); display: inline; float: none;&quot;&gt;cout &amp;lt;&amp;lt; &quot;В множестве отсутствует данное число!&quot; &amp;lt;&amp;lt; endl;&lt;/span&gt;&#10;&#10;" style="shape=parallelogram;perimeter=parallelogramPerimeter;whiteSpace=wrap;html=1;fixedSize=1;" vertex="1" parent="1">
                    <mxGeometry x="2380" y="1630" width="150" height="60" as="geometry"/>
                </mxCell>
                <mxCell id="96" value="" style="edgeStyle=none;html=1;" edge="1" parent="1" source="93" target="95">
                    <mxGeometry relative="1" as="geometry"/>
                </mxCell>
                <mxCell id="93" value="cout &lt;&lt; &quot;  =&gt; &quot; &lt;&lt; index &lt;&lt; &quot; &lt;=  &quot;;" style="shape=parallelogram;perimeter=parallelogramPerimeter;whiteSpace=wrap;html=1;fixedSize=1;" vertex="1" parent="1">
                    <mxGeometry x="2080" y="1724" width="140" height="60" as="geometry"/>
                </mxCell>
                <mxCell id="98" value="" style="edgeStyle=none;html=1;" edge="1" parent="1" source="95" target="97">
                    <mxGeometry relative="1" as="geometry"/>
                </mxCell>
                <mxCell id="105" style="edgeStyle=none;html=1;" edge="1" parent="1" source="95" target="107">
                    <mxGeometry relative="1" as="geometry">
                        <mxPoint x="2300" y="2460" as="targetPoint"/>
                        <Array as="points">
                            <mxPoint x="1970" y="1870"/>
                            <mxPoint x="1970" y="2420"/>
                            <mxPoint x="2300" y="2420"/>
                        </Array>
                    </mxGeometry>
                </mxCell>
                <mxCell id="95" value="for (int i = 0; i &lt; n; i++)" style="shape=hexagon;perimeter=hexagonPerimeter2;whiteSpace=wrap;html=1;fixedSize=1;" vertex="1" parent="1">
                    <mxGeometry x="2075" y="1830" width="150" height="80" as="geometry"/>
                </mxCell>
                <mxCell id="100" style="edgeStyle=none;html=1;entryX=0.5;entryY=0;entryDx=0;entryDy=0;" edge="1" parent="1" source="97" target="99">
                    <mxGeometry relative="1" as="geometry">
                        <Array as="points">
                            <mxPoint x="2270" y="1980"/>
                        </Array>
                    </mxGeometry>
                </mxCell>
                <mxCell id="103" style="edgeStyle=none;html=1;entryX=1;entryY=0.5;entryDx=0;entryDy=0;" edge="1" parent="1" source="97" target="95">
                    <mxGeometry relative="1" as="geometry">
                        <Array as="points">
                            <mxPoint x="2020" y="1980"/>
                            <mxPoint x="2020" y="2260"/>
                            <mxPoint x="2140" y="2260"/>
                            <mxPoint x="2140" y="2320"/>
                            <mxPoint x="2380" y="2320"/>
                            <mxPoint x="2380" y="1870"/>
                        </Array>
                    </mxGeometry>
                </mxCell>
                <mxCell id="97" value="if (arr[i] != 'u')" style="rhombus;whiteSpace=wrap;html=1;" vertex="1" parent="1">
                    <mxGeometry x="2090" y="1940" width="120" height="80" as="geometry"/>
                </mxCell>
                <mxCell id="102" value="" style="edgeStyle=none;html=1;" edge="1" parent="1" source="99" target="101">
                    <mxGeometry relative="1" as="geometry"/>
                </mxCell>
                <mxCell id="99" value="arr_tmp[j] = arr[i];" style="rounded=0;whiteSpace=wrap;html=1;" vertex="1" parent="1">
                    <mxGeometry x="2210" y="2060" width="120" height="60" as="geometry"/>
                </mxCell>
                <mxCell id="104" style="edgeStyle=none;html=1;entryX=1;entryY=0.5;entryDx=0;entryDy=0;" edge="1" parent="1" source="101" target="95">
                    <mxGeometry relative="1" as="geometry">
                        <Array as="points">
                            <mxPoint x="2270" y="2260"/>
                            <mxPoint x="2140" y="2260"/>
                            <mxPoint x="2140" y="2320"/>
                            <mxPoint x="2380" y="2320"/>
                            <mxPoint x="2380" y="1870"/>
                        </Array>
                    </mxGeometry>
                </mxCell>
                <mxCell id="101" value="j++;" style="rounded=0;whiteSpace=wrap;html=1;" vertex="1" parent="1">
                    <mxGeometry x="2210" y="2160" width="120" height="60" as="geometry"/>
                </mxCell>
                <mxCell id="109" value="" style="edgeStyle=none;html=1;" edge="1" parent="1" source="107" target="108">
                    <mxGeometry relative="1" as="geometry"/>
                </mxCell>
                <mxCell id="107" value="cout &lt;&lt; &quot;Изменённое множество: &quot;;" style="shape=parallelogram;perimeter=parallelogramPerimeter;whiteSpace=wrap;html=1;fixedSize=1;" vertex="1" parent="1">
                    <mxGeometry x="2240" y="2460" width="120" height="60" as="geometry"/>
                </mxCell>
                <mxCell id="111" value="" style="edgeStyle=none;html=1;" edge="1" parent="1" source="108" target="110">
                    <mxGeometry relative="1" as="geometry"/>
                </mxCell>
                <mxCell id="108" value="outprint(arr_tmp, k);" style="rounded=0;whiteSpace=wrap;html=1;" vertex="1" parent="1">
                    <mxGeometry x="2240" y="2560" width="120" height="60" as="geometry"/>
                </mxCell>
                <mxCell id="110" value="Конец" style="ellipse;whiteSpace=wrap;html=1;" vertex="1" parent="1">
                    <mxGeometry x="2240" y="2710" width="120" height="80" as="geometry"/>
                </mxCell>
            </root>
        </mxGraphModel>
    </diagram>
</mxfile>